<svg width="113" height="67" xmlns="http://www.w3.org/2000/svg" xmlns:xlink="http://www.w3.org/1999/xlink" overflow="hidden"><defs><clipPath id="clip0"><path d="M796 24 909 24 909 91 796 91Z" fill-rule="evenodd" clip-rule="evenodd"/></clipPath></defs><g clip-path="url(#clip0)" transform="translate(-796 -24)"><path d="M801 65.7958C801.421 64.7281 801.757 63.6214 802.264 62.5928 802.603 61.9041 803.228 61.3786 803.528 60.671 803.87 59.8617 803.817 58.9179 804.159 58.1086 804.459 57.401 805.115 56.8904 805.423 56.1868 805.964 54.9526 806.266 53.6243 806.687 52.3431 806.898 51.0619 806.746 49.6612 807.319 48.4994 807.659 47.8108 808.773 47.8447 809.215 47.2182 809.874 46.2826 810.12 45.1061 810.478 44.0152 811.74 40.1794 810.498 42.341 811.742 37.6092 812.257 35.6518 812.812 31.5091 813.638 31.8437 814.464 32.1784 819.12 31.3688 816.699 39.6171 816.278 49.8668 814.991 54.3861 814.27 58.1086 813.549 61.8311 813.817 60.4892 812.374 61.9523 812.333 62.1199 811.44 66.0186 811.11 66.4365 810.636 67.0377 809.847 67.2906 809.215 67.7177 808.629 68.9049 805.919 74.1617 805.862 75.7961 805.805 77.4305 806.559 75.2254 808.874 77.5243 813.882 73.1129 810.738 73.8364 811.742 71.5613 812.747 69.2863 810.697 69.9632 814.902 63.8741 815.585 62.8846 816.587 62.1657 817.429 61.3116 817.64 60.2439 817.662 59.1195 818.061 58.1086 818.517 56.9526 819.361 55.994 819.957 54.9056 820.415 54.0708 820.85 53.2208 821.221 52.3431 821.483 51.7224 821.619 51.0535 821.853 50.4213 822.251 49.3446 822.718 48.2949 823.117 47.2182 823.35 46.5859 823.379 45.8582 823.748 45.2964 824.244 44.5426 825.012 44.0152 825.644 43.3746 826.959 38.0421 825.358 43.3139 827.54 38.8904 827.838 38.2864 827.756 37.4958 828.172 36.9685 828.646 36.3673 829.436 36.1144 830.068 35.6873 830.489 35.0467 830.992 34.4542 831.331 33.7655 831.629 33.1616 831.963 31.1684 831.963 31.8437 831.963 36.8862 831.467 41.7552 830.068 46.5777 829.56 48.328 828.741 49.9718 828.172 51.7026 826.812 55.8391 828.497 52.8089 826.276 56.1868 824.105 64.9897 825.348 61.4217 823.117 67.0771 822.906 70.2801 822.485 73.4761 822.485 76.6862 822.485 78.8322 821.423 81.8046 823.117 83.0922 824.4 84.068 824.295 80.0626 825.012 78.608 825.352 77.9193 825.855 77.3268 826.276 76.6862 827.621 68.5029 825.695 76.583 828.804 70.2801 829.399 69.0722 829.472 67.6445 830.068 66.4365 830.539 65.4815 831.452 64.8075 831.963 63.8741 832.514 62.8689 832.893 61.7701 833.227 60.671 833.738 58.988 833.263 56.7912 834.491 55.5461L835.755 54.2649C837.343 49.4351 835.201 55.3879 837.65 50.4213 840.266 45.1174 835.925 52.0844 839.546 46.5777 839.757 45.7236 839.635 44.7027 840.178 44.0152 840.594 43.4879 841.657 43.9019 842.074 43.3746 842.616 42.6871 842.363 41.6215 842.705 40.8122 843.005 40.1045 843.548 39.531 843.969 38.8904 844.125 38.4163 845.048 35.0467 845.865 35.0467 846.625 35.0467 846.708 36.3279 847.129 36.9685 846.708 41.8799 846.515 48.713 845.865 51.7026 845.215 54.6921 844.156 52.9153 843.23 54.9056 842.305 56.8959 841.484 61.3641 840.31 63.6444 839.135 65.9248 835.996 67.1615 836.185 68.5878 836.373 70.014 840.881 71.2793 841.442 72.202 842.002 73.1246 840.065 73.3866 839.546 74.1238 838.998 74.9009 838.75 75.857 838.282 76.6862 837.905 77.3547 836.481 78.0636 837.018 78.608 837.633 79.2306 838.703 78.181 839.546 77.9674 840.178 77.1133 840.93 76.3384 841.442 75.405 844.768 69.3344 839.866 71.2368 848.393 62.5928 851.789 59.1501 850.307 61.0662 852.816 56.8274 853.237 55.3326 852.641 53.7169 854.08 52.3431 855.518 50.9692 860.298 49.7498 861.448 48.5841 861.869 47.3029 858.785 45.0486 859.135 44.0152 859.485 42.9818 863.206 43.0721 863.546 42.3834 866.162 37.079 858.673 43.7574 862.294 38.2497 862.985 35.4492 864.471 30.9188 861.662 28.6406 860.41 27.6248 860.71 31.8097 859.767 33.1249 858.974 34.2306 857.661 34.8332 856.607 35.6873 856.397 36.9685 856.061 38.235 855.975 39.531 855.428 47.8514 855.547 56.2189 854.712 64.5146 854.6 65.6253 852.199 72.7973 851.552 74.7643 851.232 77.0365 850.632 82.3964 849.656 84.3735 849.083 85.5353 849.911 81.7713 850.288 80.5299 850.79 78.8781 852.096 75.7227 853.448 74.1238 854.223 73.2066 855.133 72.4155 855.975 71.5613 857.29 66.2283 855.689 71.5013 857.871 67.0771 859.534 63.7053 856.965 65.9523 860.399 61.3116 860.854 60.6957 861.662 60.4575 862.294 60.0304 862.926 58.7492 864.055 57.3652 864.19 56.1868 864.325 55.0083 862.808 53.5637 863.105 52.9597 863.568 52.0227 867.552 50.3615 867.982 49.7807 868.192 48.4995 867.978 47.0648 868.613 45.937 868.944 45.3508 870.093 45.8236 870.509 45.2964 871.052 44.6089 870.576 43.4025 871.141 42.734 871.94 41.7887 873.318 41.5593 874.301 40.8122 875.016 40.2687 875.564 39.531 876.196 38.8904 876.407 38.2497 876.196 37.1821 876.828 36.9685 877.393 36.7775 878.092 37.6458 878.092 38.2497 878.092 39.3997 877.303 40.4087 876.828 41.4528 876.039 43.187 875 44.8044 874.301 46.5777 873.731 48.0211 873.477 49.573 873.037 51.0619 872.845 51.7087 872.566 52.3286 872.405 52.9837 871.934 54.8936 871.712 56.8675 871.141 58.7491 870.864 59.6619 870.248 60.4339 869.877 61.3116 869.615 61.9323 869.456 62.5928 869.245 63.2335 868.613 67.5042 868.697 71.9487 867.35 76.0455 867.139 76.6862 867.016 77.3634 866.718 77.9674 866.378 78.656 865.236 80.6266 865.454 79.8892 866.297 77.0405 866.986 74.036 868.613 71.5613 870.559 68.6035 869.487 70.2997 871.773 66.4365 871.984 65.1553 872 63.825 872.405 62.5928 872.645 61.8624 872.57 61.638 873.669 60.671 874.767 59.704 878.669 58.7891 878.998 56.7909 879.208 55.5097 876.453 52.3371 876.196 51.0619 875.94 49.7867 877.12 49.8287 877.46 49.1401 879.872 44.2493 875.404 50.8512 879.988 44.6559 880.198 44.0152 880.322 43.338 880.62 42.734 881.116 41.7276 883.302 38.9268 883.779 38.2497 884.22 37.6232 884.45 36.8089 885.043 36.3279 895.942 27.4887 886.406 36.8681 891.994 31.203 892.168 30.6745 892.733 28 893.889 28 894.485 28 894.732 28.8542 895.153 29.2813 894.04 39.4372 895.358 31.0833 893.258 38.8904 892.975 39.9408 893.003 41.0739 892.626 42.0934 892.359 42.8143 891.654 43.3045 891.362 44.0152 890.593 45.8852 890.098 47.8589 889.466 49.7807 889.255 50.4214 889.204 51.1407 888.834 51.7026 887.694 53.4362 887.109 54.1546 886.307 56.1868 884.051 61.9041 886.211 58.255 883.779 61.9523 883.568 62.5929 883.445 63.2702 883.147 63.8741 882.686 64.8096 880.416 67.7794 879.988 68.3583 878.426 73.1079 879.32 70.994 877.46 74.7643 877.2 76.609 876.308 83.7573 875.564 85.0141 875.118 85.7691 875.143 83.3058 874.932 82.4517 875.354 71.7749 875.601 61.0896 876.196 50.4213 876.234 49.7471 878.6 51.3738 879.26 50.8198 879.92 50.2658 879.522 47.9513 880.154 47.0972 880.365 46.4566 879.173 44.6357 879.356 44.0152 879.539 43.3948 880.601 43.5211 881.252 43.3746 882.502 43.0929 883.779 42.9475 885.043 42.734 885.675 42.307 886.179 41.4528 886.939 41.4528 889.541 41.4528 889.536 42.9476 890.098 44.6559 890.015 45.7888 889.715 59.5319 888.202 65.1553 887.852 66.4583 887.36 67.7178 886.939 68.9989 886.728 70.4937 886.841 72.0739 886.307 73.4832 885.761 74.9204 883.779 77.3268 883.779 77.3268 883.568 79.0351 883.594 80.7907 883.147 82.4517 882.947 83.1945 882.466 83.7822 881.883 84.3735 881.3 84.9649 879.86 85.3593 879.649 86 874.68 85.2916 881.195 80.6941 882.515 77.9674 883.836 75.2406 885.916 72.4345 887.57 69.6395 888.444 68.1632 889.527 66.7766 890.098 65.1553 891.151 62.1657 891.799 58.9959 893.258 56.1868 893.951 54.8506 895.541 54.2048 896.417 52.9837 897.248 51.8253 897.728 50.4441 898.313 49.1401 898.782 48.0932 899.178 47.0137 899.577 45.937 899.81 45.3048 899.911 44.6192 900.209 44.0152 900.548 43.3265 901.133 42.7821 901.472 42.0934 901.77 41.4894 901.806 40.7755 902.104 40.1715 903.14 38.072 902.704 38.2497 904 38.2497" stroke="#FFFFFF" stroke-width="8" stroke-miterlimit="8" fill="none" fill-rule="evenodd"/></g></svg>