<svg width="11" height="184" xmlns="http://www.w3.org/2000/svg" xmlns:xlink="http://www.w3.org/1999/xlink" overflow="hidden"><defs><clipPath id="clip0"><path d="M1083 371 1094 371 1094 555 1083 555Z" fill-rule="evenodd" clip-rule="evenodd"/></clipPath></defs><g clip-path="url(#clip0)" transform="translate(-1083 -371)"><path d="M1085 371C1085.44 379.829 1085.79 388.662 1086.33 397.487 1086.46 399.5 1086.82 401.496 1087 403.507 1087.49 409.122 1087.87 414.745 1088.33 420.362 1088.53 422.771 1088.68 425.186 1089 427.586 1091.47 446.177 1089.42 424.67 1091 443.237 1090.78 451.865 1090.69 460.497 1090.33 469.122 1089.97 477.894 1089.81 472.277 1088.33 479.957 1087.76 482.949 1087.44 485.977 1087 488.987 1087.44 498.819 1087.86 508.652 1088.33 518.484 1088.53 522.498 1088.92 526.505 1089 530.523 1089.15 538.348 1089 546.174 1089 554" stroke="#FFFFFF" stroke-width="4" stroke-miterlimit="8" fill="none" fill-rule="evenodd"/></g></svg>